<svg width="140" height="19" viewBox="0 0 140 19" fill="none" xmlns="http://www.w3.org/2000/svg">
<path d="M14.9048 0.280762L8.49609 18.1274H6.40869L0 0.280762H2.17285L6.34766 12.0361C6.51855 12.5081 6.66911 12.9598 6.79932 13.3911C6.93766 13.8224 7.05973 14.2375 7.16553 14.6362C7.27132 15.035 7.36491 15.4215 7.44629 15.7959C7.52767 15.4215 7.62126 15.035 7.72705 14.6362C7.83285 14.2293 7.95492 13.8102 8.09326 13.3789C8.23161 12.9395 8.38623 12.4797 8.55713 11.9995L12.7075 0.280762H14.9048ZM31.2949 18.1274H21.3584V0.280762H31.2949V2.11182H23.4336V7.88574H30.8433V9.69238H23.4336V16.2964H31.2949V18.1274ZM39.25 18.1274V0.280762H41.3252V16.272H49.2476V18.1274H39.25ZM71.79 9.17969C71.79 10.555 71.6151 11.8083 71.2651 12.9395C70.9152 14.0625 70.3944 15.0309 69.7026 15.8447C69.019 16.6504 68.1686 17.2729 67.1514 17.7124C66.1341 18.1519 64.9541 18.3716 63.6113 18.3716C62.2279 18.3716 61.0194 18.1519 59.9858 17.7124C58.9604 17.2729 58.106 16.6463 57.4224 15.8325C56.7469 15.0187 56.2383 14.0462 55.8965 12.915C55.5628 11.7839 55.396 10.5306 55.396 9.15527C55.396 7.33236 55.6971 5.73324 56.2993 4.35791C56.9015 2.98258 57.813 1.91243 59.0337 1.14746C60.2625 0.382487 61.8006 0 63.6479 0C65.4139 0 66.8991 0.378418 68.1035 1.13525C69.3161 1.89209 70.2316 2.95817 70.8501 4.3335C71.4767 5.70068 71.79 7.31608 71.79 9.17969ZM57.5811 9.17969C57.5811 10.6934 57.7967 12.0036 58.228 13.1104C58.6593 14.2171 59.3185 15.0716 60.2056 15.6738C61.1007 16.276 62.236 16.5771 63.6113 16.5771C64.9948 16.5771 66.126 16.276 67.0049 15.6738C67.8919 15.0716 68.547 14.2171 68.9702 13.1104C69.3934 12.0036 69.605 10.6934 69.605 9.17969C69.605 6.87663 69.1208 5.07812 68.1523 3.78418C67.1921 2.4821 65.6906 1.83105 63.6479 1.83105C62.2645 1.83105 61.1252 2.12809 60.23 2.72217C59.3348 3.31624 58.6675 4.1626 58.228 5.26123C57.7967 6.35173 57.5811 7.65788 57.5811 9.17969ZM87.3989 1.85547C86.4142 1.85547 85.5272 2.02637 84.7378 2.36816C83.9565 2.70182 83.2892 3.1901 82.7358 3.83301C82.1906 4.46777 81.7715 5.23682 81.4785 6.14014C81.1855 7.04346 81.0391 8.06071 81.0391 9.19189C81.0391 10.6893 81.271 11.9914 81.7349 13.0981C82.2069 14.1968 82.9067 15.0472 83.8345 15.6494C84.7703 16.2516 85.9382 16.5527 87.3379 16.5527C88.1354 16.5527 88.8841 16.4876 89.584 16.3574C90.292 16.2191 90.9797 16.0482 91.647 15.8447V17.6514C90.9959 17.8955 90.3123 18.0745 89.5962 18.1885C88.88 18.3105 88.0296 18.3716 87.0449 18.3716C85.2301 18.3716 83.7124 17.9972 82.4917 17.2485C81.2791 16.4917 80.3677 15.4256 79.7573 14.0503C79.1551 12.675 78.854 11.0514 78.854 9.17969C78.854 7.82878 79.0412 6.59587 79.4155 5.48096C79.798 4.35791 80.3514 3.38949 81.0757 2.57568C81.8081 1.76188 82.7033 1.13525 83.7612 0.695801C84.8273 0.24821 86.048 0.0244141 87.4233 0.0244141C88.3267 0.0244141 89.1974 0.113932 90.0356 0.292969C90.8739 0.472005 91.6307 0.728353 92.3062 1.06201L91.4761 2.81982C90.9064 2.55941 90.2798 2.33561 89.5962 2.14844C88.9207 1.95312 88.1883 1.85547 87.3989 1.85547ZM99.5166 18.1274V0.280762H101.592V18.1274H99.5166ZM115.98 18.1274H113.893V2.11182H108.277V0.280762H121.571V2.11182H115.98V18.1274ZM132.822 9.22852L137.57 0.280762H139.804L133.859 11.2061V18.1274H131.784V11.3037L125.827 0.280762H128.098L132.822 9.22852Z" fill="#69B9FF"/>
</svg>
